<?xml version="1.0" encoding="UTF-8" standalone="no"?>
<svg xmlns="http://www.w3.org/2000/svg" xmlns:xlink="http://www.w3.org/1999/xlink" width="360" height="360" version="1.0">
  <defs>
    <linearGradient xlink:href="#a" id="j" x1="414.13153" x2="302.99097" y1="240.14357" y2="240.80186" gradientTransform="matrix(.5774 0 0 1.39239 44.857079 -213.35399)" gradientUnits="userSpaceOnUse"/>
    <linearGradient xlink:href="#b" id="i" x1="299.37338" x2="411.72696" y1="252.27031" y2="252.27031" gradientTransform="matrix(.58452 0 0 1.41222 44.857079 -224.7014)" gradientUnits="userSpaceOnUse"/>
    <linearGradient xlink:href="#c" id="g" x1="150.49463" x2="345.53265" y1="42.808048" y2="242.17987" gradientTransform="matrix(.70716 .70716 -.70706 .70706 165.34723 -157.46953)" gradientUnits="userSpaceOnUse"/>
    <linearGradient id="d">
      <stop offset="0" stop-color="#37abc8"/>
      <stop offset="1" stop-color="#41c8e2"/>
    </linearGradient>
    <linearGradient id="e">
      <stop offset="0" stop-color="#fff"/>
      <stop offset="1" stop-color="#fff" stop-opacity="0"/>
    </linearGradient>
    <linearGradient id="a">
      <stop offset="0" stop-color="#241f1c"/>
      <stop offset="1" stop-color="#b3b3b3"/>
    </linearGradient>
    <linearGradient id="b">
      <stop offset="0" stop-color="#241f1c"/>
      <stop offset="1" stop-color="#b3b3b3"/>
    </linearGradient>
    <linearGradient id="c">
      <stop offset="0" stop-color="#747474"/>
      <stop offset=".5" stop-color="#bebebe"/>
      <stop offset=".625" stop-color="#d5d5d5"/>
      <stop offset=".75" stop-color="#818181"/>
      <stop offset="1" stop-color="#c3c3c3"/>
    </linearGradient>
    <linearGradient xlink:href="#d" id="f" x1="333.46722" x2="226.24182" y1="111.85479" y2="114.19597" gradientUnits="userSpaceOnUse"/>
    <radialGradient xlink:href="#e" id="h" cx="152.81053" cy="105.52122" r="32.437725" fx="152.81053" fy="105.52122" gradientTransform="matrix(.33029 .41854 -.88885 .70142 240.50843 -75.850178)" gradientUnits="userSpaceOnUse"/>
  </defs>
  <path fill="#288aaa" fill-rule="evenodd" stroke="#28433c" stroke-width="5.30723476" d="m28.889328 33.394928 2.68056 101.191092-4.690976 86.44802 4.020837 107.22234 96.500101-1.3403 104.54178 2.68056 101.19109-3.35069-4.02083-93.81955 6.03125-99.85082-2.01042-98.510511H214.51801l-92.47926-3.350699-93.149422 2.680558z"/>
  <path fill="none" stroke="#b7c8c4" stroke-dasharray="10.61447024 2.65361757" stroke-linejoin="round" stroke-width="2.65361738" d="m32.993537 274.9473 76.674183-81.77509s48.33907-54.86904 67.90248-63.08952"/>
  <path fill="#37abc8" fill-rule="evenodd" stroke="#14465a" stroke-width=".66340435" d="M29.55947 238.45766c-.900729-16.60962 17.844113-35.58879 26.166911-43.84419 9.032976-8.95984 34.954708-24.52925 42.9843-34.39834 15.628529-19.20886 6.937909-43.97643 21.393539-62.575674 21.78523-28.029827 58.47511-45.796914 88.38253-62.904249 35.36763 1.664258 92.95414 2.263604 121.96541 2.010419.37185 43.520639 4.04325 124.830164.67014 166.776874-3.35648 48.58105 6.83144 93.92588-2.33707 123.47141-85.49099 1.02905-119.65517 1.19497-224.1951.03603-21.239968.51392-48.239609-1.70406-71.679962-1.7892-.43048-20.86645-1.214161-59.55478-3.350698-86.78308z"/>
  <path fill="#e9c6af" fill-rule="evenodd" stroke="#000" stroke-linejoin="round" stroke-width="2.5999999" d="M173.04542 328.36333s-16.09424-24.23922-7.70919-29.07592c25.19829-12.31719 10.0974-14.23164 36.20104-21.27218 8.78211.38934 30.66293-11.25773 38.17434-1.52294.51411 4.47936 5.20132 30.85846 7.13123 34.9333 8.72915 18.43092 17.31144-8.96225 35.04867-19.02643 10.50766-5.96209 27.90191-36.21711 39.96973-36.78764 3.57903-.1692 9.01251 9.01252 9.01251 9.01252l2.08868 60.32033-102.14185 4.50626-57.77516-1.0873z"/>
  <path fill="none" stroke="#e6e6e6" stroke-dasharray="30 5" stroke-dashoffset="11" stroke-width="5" d="M154.36367 32.1976s-66.021295 52.167779-77.181837 68.68475c-18.035353 26.6913 70.423707 225.50157 70.423707 225.50157"/>
  <path fill="none" stroke="#e6e6e6" stroke-dasharray="30 5" stroke-dashoffset="15.5" stroke-width="5" d="M122.18546 325.76174 28.723659 40.330216"/>
  <path fill="none" stroke="purple" stroke-dasharray="10.61446953 2.65361738" stroke-dashoffset="11.67591648" stroke-width="2.65361738" d="M327.96224 242.56646c-44.96795 6.59046-86.79625 14.49102-137.79966 22.9854-13.03041-53.16472-14.37986-64.20892-19.87142-83.64856"/>
  <path fill="none" stroke="#102844" stroke-width="5.30723476" d="m28.833211 33.519789 2.68056 101.191091-4.69097 86.44803 4.02083 107.22234 96.500109-1.3403 104.54178 2.68056 101.19109-3.35069-4.02083-93.81955 6.03124-99.85083-2.01041-98.51051H214.4619l-92.47926-3.350699-93.149429 2.680558z"/>
  <path fill="url(#f)" fill-rule="evenodd" d="M347.4826 129.17943a87.621696 87.621696 0 1 1-175.2434 0 87.621696 87.621696 0 1 1 175.2434 0z" transform="translate(-69.542544 -17.897461) scale(1.15782)"/>
  <g stroke="purple">
    <path fill="none" stroke-dasharray="21.22893906 5.30723476" stroke-width="5.30723476" d="M251.35198 113.14266c40.29256-4.64903 73.50334-9.20477 73.50334-9.20477"/>
    <path fill="none" stroke-dasharray="21.22800064 5.30700016" stroke-dashoffset="33.43410101" stroke-width="5.30700016" d="M175.33373 212.48109c-4.83177-21.5164-13.92576-65.98721-17.20166-83.81433 16.51699-3.02103 35.64546-6.74837 65.02009-11.38861"/>
    <path fill="purple" fill-rule="evenodd" stroke-width="3.36125827" d="M236.10327 55.600789c-8.07941 0-14.63423 6.554837-14.63424 14.634241 0 6.520751 4.29291 12.033471 10.18838 13.92414l-.06173 2.74778h-22.32185V97.8672h22.10572l-1.57455 82.37162c-.05094-.00471-.10371.00453-.15437 0-.70775-.06818-1.42529-.12368-2.13031-.21612-.0524-.00646-.10197-.02427-.15437-.03087-.72445-.09686-1.44051-.18613-2.16118-.30875-.03186-.00516-.06076-.02566-.09261-.03087-6.01783-1.03368-11.87415-2.96185-17.35114-5.83518-2.26783-1.10956-4.46424-2.32636-6.57615-3.64311-.89118-.55562-1.75665-1.13495-2.62428-1.72894-.26844-.23237-.534-.46892-.80273-.71012 1.76263-1.89094 3.52105-3.78588 5.27944-5.68079-8.60643-6.80435-17.25344-13.55734-25.87235-20.34593.28815 1.68779.5763 3.37557.86446 5.06334 2.02069 11.86526 4.0079 23.73628 6.05131 35.59764 2.58495-2.76662 5.16395-5.53882 7.74933-8.30509.4035.3105.86701.61723 1.38935.92623 9.76781 9.54367 22.8649 15.4291 36.36948 16.82629l-.21611 11.42334h13.49189l-.21611-11.36159c6.2305-.62374 12.34146-2.28233 18.06124-5.06333 7.14216-3.18277 13.59699-7.84842 19.23445-13.30666 2.73145 2.92907 5.4476 5.87241 8.18161 8.79906 2.33547-13.55023 4.62665-27.10807 6.94662-40.66096-1.34815 1.05999-2.69632 2.12001-4.04448 3.18002-7.27342 5.72513-14.56878 11.42259-21.82788 17.16588 1.63383 1.76214 3.2724 3.51986 4.90896 5.27945-.52961.39301-1.04967.91689-1.60542 1.5437-8.88141 6.33603-19.34667 10.16495-30.07121 11.33074l-1.57458-82.279h22.10572V86.90695h-22.32184l-.06174-2.74778h.09261c5.85357-1.91517 10.0649-7.433306 10.0649-13.92414 0-8.079404-6.55483-14.634241-14.63424-14.634241zm0 8.428582c3.5128 0 6.3909 2.847248 6.3909 6.360029 0 3.512791-2.8781 6.360029-6.3909 6.360029-3.51278 0-6.36002-2.847238-6.36002-6.360029 0-3.512781 2.84724-6.360029 6.36002-6.360029z"/>
  </g>
  <g transform="translate(-1.8737319 3.3374581)">
    <g transform="translate(-32.321362 -4.439952) scale(1.1025)">
      <path fill="url(#g)" stroke="#1a1a1a" stroke-width="3.62811804" d="M315.67376 42.973203c-41.49103-41.491028-108.8355-41.513128-150.32653-.0221-37.21281 37.21282-40.94075 95.187367-11.4021 136.692627l-26.18506 26.18505 25.05811 25.05811 26.18505-26.18505c41.50526 29.53866 99.47983 25.81072 136.69263-11.4021 41.49103-41.49104 41.46893-108.835507-.0221-150.326537zm-12.52905 12.52906c34.57586 34.57586 34.59796 90.692557.02209 125.268407-34.57585 34.57588-90.71465 34.57588-125.29052 0-34.57587-34.57585-34.57586-90.714647 0-125.290507 34.57586-34.57587 90.69256-34.55377 125.26843.0221z"/>
      <path fill="url(#h)" d="M265.87811 42.886408c-4.55289 12.203228-26.99531 5.617999-52.43593 22.969512-25.4406 17.351506-31.79747 46.76707-43.63588 46.80075-8.38952-10.44682 2.20086-44.78264 27.64146-62.134142 25.44064-17.351504 60.04088-18.082948 68.43035-7.63612z"/>
    </g>
    <rect width="59.378761" height="151.2679" x="222.99344" y="55.926376" fill="url(#i)" stroke="url(#j)" stroke-linejoin="round" stroke-width="6.82550764" rx="16.758005" ry="19.190006" transform="rotate(45)"/>
  </g>
</svg>